ISO-10303-21;
HEADER;
/* Generated by software containing ST-Developer
 * from STEP Tools, Inc. (www.steptools.com) 
 */

FILE_DESCRIPTION(
/* description */ (''),
/* implementation_level */ '2;1');

FILE_NAME(
/* name */ 'Laminar Canon Servo 2020 Mount.step',
/* time_stamp */ '2025-11-13T11:56:21-05:00',
/* author */ (''),
/* organization */ (''),
/* preprocessor_version */ 'ST-DEVELOPER v20.1',
/* originating_system */ 'Autodesk Translation Framework v14.17.0.0',
/* authorisation */ '');

FILE_SCHEMA (('AUTOMOTIVE_DESIGN { 1 0 10303 214 3 1 1 }'));
ENDSEC;

DATA;
#10=MECHANICAL_DESIGN_GEOMETRIC_PRESENTATION_REPRESENTATION('',(#13),#1344);
#11=SHAPE_REPRESENTATION_RELATIONSHIP('SRR','None',#1351,#12);
#12=ADVANCED_BREP_SHAPE_REPRESENTATION('',(#14),#1343);
#13=STYLED_ITEM('',(#1361),#14);
#14=MANIFOLD_SOLID_BREP('Body26',#822);
#15=CYLINDRICAL_SURFACE('',#876,1.2645);
#16=CYLINDRICAL_SURFACE('',#877,1.2645);
#17=CYLINDRICAL_SURFACE('',#878,1.2645);
#18=CYLINDRICAL_SURFACE('',#879,1.2645);
#19=CYLINDRICAL_SURFACE('',#880,4.);
#20=CYLINDRICAL_SURFACE('',#882,4.);
#21=CYLINDRICAL_SURFACE('',#890,4.);
#22=FACE_BOUND('',#110,.T.);
#23=FACE_BOUND('',#111,.T.);
#24=FACE_BOUND('',#113,.T.);
#25=FACE_BOUND('',#115,.T.);
#26=FACE_BOUND('',#116,.T.);
#27=FACE_BOUND('',#120,.T.);
#28=FACE_BOUND('',#135,.T.);
#29=FACE_BOUND('',#136,.T.);
#30=FACE_BOUND('',#137,.T.);
#31=FACE_BOUND('',#144,.T.);
#32=CIRCLE('',#842,4.);
#33=CIRCLE('',#843,2.33572131123978);
#34=CIRCLE('',#845,4.);
#35=CIRCLE('',#846,2.33572131123978);
#36=CIRCLE('',#856,1.2645);
#37=CIRCLE('',#857,1.2645);
#38=CIRCLE('',#859,4.);
#39=CIRCLE('',#861,1.2645);
#40=CIRCLE('',#862,1.2645);
#41=CIRCLE('',#865,1.2645);
#42=CIRCLE('',#867,4.);
#43=CIRCLE('',#869,1.2645);
#44=CIRCLE('',#872,1.2645);
#45=CIRCLE('',#874,1.2645);
#46=CIRCLE('',#885,2.33572131123978);
#47=CIRCLE('',#891,4.);
#48=CIRCLE('',#892,4.);
#49=CONICAL_SURFACE('',#841,2.,1.02974425867665);
#50=CONICAL_SURFACE('',#844,2.,1.02974425867665);
#51=CONICAL_SURFACE('',#894,2.,1.02974425867665);
#52=FACE_OUTER_BOUND('',#94,.T.);
#53=FACE_OUTER_BOUND('',#95,.T.);
#54=FACE_OUTER_BOUND('',#96,.T.);
#55=FACE_OUTER_BOUND('',#97,.T.);
#56=FACE_OUTER_BOUND('',#98,.T.);
#57=FACE_OUTER_BOUND('',#99,.T.);
#58=FACE_OUTER_BOUND('',#100,.T.);
#59=FACE_OUTER_BOUND('',#101,.T.);
#60=FACE_OUTER_BOUND('',#102,.T.);
#61=FACE_OUTER_BOUND('',#103,.T.);
#62=FACE_OUTER_BOUND('',#104,.T.);
#63=FACE_OUTER_BOUND('',#105,.T.);
#64=FACE_OUTER_BOUND('',#106,.T.);
#65=FACE_OUTER_BOUND('',#107,.T.);
#66=FACE_OUTER_BOUND('',#108,.T.);
#67=FACE_OUTER_BOUND('',#109,.T.);
#68=FACE_OUTER_BOUND('',#112,.T.);
#69=FACE_OUTER_BOUND('',#114,.T.);
#70=FACE_OUTER_BOUND('',#117,.T.);
#71=FACE_OUTER_BOUND('',#118,.T.);
#72=FACE_OUTER_BOUND('',#119,.T.);
#73=FACE_OUTER_BOUND('',#121,.T.);
#74=FACE_OUTER_BOUND('',#122,.T.);
#75=FACE_OUTER_BOUND('',#123,.T.);
#76=FACE_OUTER_BOUND('',#124,.T.);
#77=FACE_OUTER_BOUND('',#125,.T.);
#78=FACE_OUTER_BOUND('',#126,.T.);
#79=FACE_OUTER_BOUND('',#127,.T.);
#80=FACE_OUTER_BOUND('',#128,.T.);
#81=FACE_OUTER_BOUND('',#129,.T.);
#82=FACE_OUTER_BOUND('',#130,.T.);
#83=FACE_OUTER_BOUND('',#131,.T.);
#84=FACE_OUTER_BOUND('',#132,.T.);
#85=FACE_OUTER_BOUND('',#133,.T.);
#86=FACE_OUTER_BOUND('',#134,.T.);
#87=FACE_OUTER_BOUND('',#138,.T.);
#88=FACE_OUTER_BOUND('',#139,.T.);
#89=FACE_OUTER_BOUND('',#140,.T.);
#90=FACE_OUTER_BOUND('',#141,.T.);
#91=FACE_OUTER_BOUND('',#142,.T.);
#92=FACE_OUTER_BOUND('',#143,.T.);
#93=FACE_OUTER_BOUND('',#145,.T.);
#94=EDGE_LOOP('',(#524,#525,#526,#527,#528,#529,#530,#531,#532,#533));
#95=EDGE_LOOP('',(#534,#535,#536,#537,#538,#539,#540,#541));
#96=EDGE_LOOP('',(#542,#543,#544,#545));
#97=EDGE_LOOP('',(#546,#547,#548,#549,#550,#551,#552,#553,#554));
#98=EDGE_LOOP('',(#555,#556,#557,#558));
#99=EDGE_LOOP('',(#559,#560,#561,#562));
#100=EDGE_LOOP('',(#563,#564,#565,#566));
#101=EDGE_LOOP('',(#567,#568,#569,#570));
#102=EDGE_LOOP('',(#571,#572,#573,#574));
#103=EDGE_LOOP('',(#575,#576,#577,#578));
#104=EDGE_LOOP('',(#579,#580,#581,#582,#583,#584,#585,#586,#587,#588,#589,
#590,#591,#592,#593));
#105=EDGE_LOOP('',(#594,#595,#596,#597));
#106=EDGE_LOOP('',(#598,#599,#600,#601));
#107=EDGE_LOOP('',(#602,#603,#604,#605));
#108=EDGE_LOOP('',(#606,#607,#608,#609));
#109=EDGE_LOOP('',(#610,#611,#612,#613,#614,#615,#616,#617));
#110=EDGE_LOOP('',(#618));
#111=EDGE_LOOP('',(#619));
#112=EDGE_LOOP('',(#620,#621,#622,#623));
#113=EDGE_LOOP('',(#624));
#114=EDGE_LOOP('',(#625,#626,#627,#628,#629,#630,#631,#632));
#115=EDGE_LOOP('',(#633));
#116=EDGE_LOOP('',(#634));
#117=EDGE_LOOP('',(#635,#636,#637,#638));
#118=EDGE_LOOP('',(#639));
#119=EDGE_LOOP('',(#640,#641,#642,#643,#644,#645,#646,#647,#648,#649,#650,
#651));
#120=EDGE_LOOP('',(#652));
#121=EDGE_LOOP('',(#653));
#122=EDGE_LOOP('',(#654,#655,#656,#657));
#123=EDGE_LOOP('',(#658));
#124=EDGE_LOOP('',(#659));
#125=EDGE_LOOP('',(#660,#661,#662,#663));
#126=EDGE_LOOP('',(#664,#665,#666,#667));
#127=EDGE_LOOP('',(#668,#669,#670,#671));
#128=EDGE_LOOP('',(#672,#673,#674,#675));
#129=EDGE_LOOP('',(#676,#677,#678,#679));
#130=EDGE_LOOP('',(#680,#681,#682,#683));
#131=EDGE_LOOP('',(#684,#685,#686,#687));
#132=EDGE_LOOP('',(#688,#689,#690,#691));
#133=EDGE_LOOP('',(#692,#693,#694,#695,#696,#697));
#134=EDGE_LOOP('',(#698,#699,#700,#701,#702,#703,#704,#705,#706,#707,#708,
#709,#710,#711,#712,#713));
#135=EDGE_LOOP('',(#714));
#136=EDGE_LOOP('',(#715));
#137=EDGE_LOOP('',(#716));
#138=EDGE_LOOP('',(#717,#718,#719,#720));
#139=EDGE_LOOP('',(#721,#722,#723,#724));
#140=EDGE_LOOP('',(#725,#726,#727,#728,#729,#730));
#141=EDGE_LOOP('',(#731,#732,#733,#734));
#142=EDGE_LOOP('',(#735,#736,#737,#738));
#143=EDGE_LOOP('',(#739,#740,#741,#742));
#144=EDGE_LOOP('',(#743));
#145=EDGE_LOOP('',(#744,#745,#746,#747));
#146=LINE('',#1114,#241);
#147=LINE('',#1116,#242);
#148=LINE('',#1118,#243);
#149=LINE('',#1120,#244);
#150=LINE('',#1122,#245);
#151=LINE('',#1124,#246);
#152=LINE('',#1126,#247);
#153=LINE('',#1128,#248);
#154=LINE('',#1130,#249);
#155=LINE('',#1131,#250);
#156=LINE('',#1134,#251);
#157=LINE('',#1136,#252);
#158=LINE('',#1138,#253);
#159=LINE('',#1140,#254);
#160=LINE('',#1142,#255);
#161=LINE('',#1144,#256);
#162=LINE('',#1145,#257);
#163=LINE('',#1149,#258);
#164=LINE('',#1151,#259);
#165=LINE('',#1153,#260);
#166=LINE('',#1154,#261);
#167=LINE('',#1156,#262);
#168=LINE('',#1158,#263);
#169=LINE('',#1160,#264);
#170=LINE('',#1162,#265);
#171=LINE('',#1164,#266);
#172=LINE('',#1166,#267);
#173=LINE('',#1167,#268);
#174=LINE('',#1170,#269);
#175=LINE('',#1172,#270);
#176=LINE('',#1173,#271);
#177=LINE('',#1178,#272);
#178=LINE('',#1184,#273);
#179=LINE('',#1188,#274);
#180=LINE('',#1190,#275);
#181=LINE('',#1191,#276);
#182=LINE('',#1195,#277);
#183=LINE('',#1197,#278);
#184=LINE('',#1199,#279);
#185=LINE('',#1200,#280);
#186=LINE('',#1203,#281);
#187=LINE('',#1205,#282);
#188=LINE('',#1206,#283);
#189=LINE('',#1209,#284);
#190=LINE('',#1211,#285);
#191=LINE('',#1213,#286);
#192=LINE('',#1214,#287);
#193=LINE('',#1215,#288);
#194=LINE('',#1217,#289);
#195=LINE('',#1219,#290);
#196=LINE('',#1221,#291);
#197=LINE('',#1222,#292);
#198=LINE('',#1225,#293);
#199=LINE('',#1227,#294);
#200=LINE('',#1228,#295);
#201=LINE('',#1231,#296);
#202=LINE('',#1233,#297);
#203=LINE('',#1234,#298);
#204=LINE('',#1237,#299);
#205=LINE('',#1239,#300);
#206=LINE('',#1240,#301);
#207=LINE('',#1243,#302);
#208=LINE('',#1245,#303);
#209=LINE('',#1246,#304);
#210=LINE('',#1248,#305);
#211=LINE('',#1254,#306);
#212=LINE('',#1259,#307);
#213=LINE('',#1260,#308);
#214=LINE('',#1266,#309);
#215=LINE('',#1272,#310);
#216=LINE('',#1273,#311);
#217=LINE('',#1280,#312);
#218=LINE('',#1289,#313);
#219=LINE('',#1291,#314);
#220=LINE('',#1293,#315);
#221=LINE('',#1295,#316);
#222=LINE('',#1297,#317);
#223=LINE('',#1299,#318);
#224=LINE('',#1301,#319);
#225=LINE('',#1304,#320);
#226=LINE('',#1306,#321);
#227=LINE('',#1308,#322);
#228=LINE('',#1310,#323);
#229=LINE('',#1311,#324);
#230=LINE('',#1314,#325);
#231=LINE('',#1315,#326);
#232=LINE('',#1321,#327);
#233=LINE('',#1322,#328);
#234=LINE('',#1323,#329);
#235=LINE('',#1326,#330);
#236=LINE('',#1327,#331);
#237=LINE('',#1329,#332);
#238=LINE('',#1330,#333);
#239=LINE('',#1336,#334);
#240=LINE('',#1340,#335);
#241=VECTOR('',#899,10.);
#242=VECTOR('',#900,10.);
#243=VECTOR('',#901,10.);
#244=VECTOR('',#902,10.);
#245=VECTOR('',#903,10.);
#246=VECTOR('',#904,10.);
#247=VECTOR('',#905,10.);
#248=VECTOR('',#906,10.);
#249=VECTOR('',#907,10.);
#250=VECTOR('',#908,10.);
#251=VECTOR('',#911,10.);
#252=VECTOR('',#912,10.);
#253=VECTOR('',#913,10.);
#254=VECTOR('',#914,10.);
#255=VECTOR('',#915,10.);
#256=VECTOR('',#916,10.);
#257=VECTOR('',#917,10.);
#258=VECTOR('',#920,10.);
#259=VECTOR('',#921,10.);
#260=VECTOR('',#922,10.);
#261=VECTOR('',#923,10.);
#262=VECTOR('',#926,10.);
#263=VECTOR('',#927,10.);
#264=VECTOR('',#928,10.);
#265=VECTOR('',#929,10.);
#266=VECTOR('',#930,10.);
#267=VECTOR('',#931,10.);
#268=VECTOR('',#932,10.);
#269=VECTOR('',#935,10.);
#270=VECTOR('',#936,10.);
#271=VECTOR('',#937,10.);
#272=VECTOR('',#942,2.);
#273=VECTOR('',#949,2.);
#274=VECTOR('',#954,10.);
#275=VECTOR('',#955,10.);
#276=VECTOR('',#956,10.);
#277=VECTOR('',#959,10.);
#278=VECTOR('',#960,10.);
#279=VECTOR('',#961,10.);
#280=VECTOR('',#962,10.);
#281=VECTOR('',#965,10.);
#282=VECTOR('',#966,10.);
#283=VECTOR('',#967,10.);
#284=VECTOR('',#970,10.);
#285=VECTOR('',#971,10.);
#286=VECTOR('',#972,10.);
#287=VECTOR('',#973,10.);
#288=VECTOR('',#974,10.);
#289=VECTOR('',#975,10.);
#290=VECTOR('',#976,10.);
#291=VECTOR('',#977,10.);
#292=VECTOR('',#978,10.);
#293=VECTOR('',#981,10.);
#294=VECTOR('',#982,10.);
#295=VECTOR('',#983,10.);
#296=VECTOR('',#986,10.);
#297=VECTOR('',#987,10.);
#298=VECTOR('',#988,10.);
#299=VECTOR('',#991,10.);
#300=VECTOR('',#992,10.);
#301=VECTOR('',#993,10.);
#302=VECTOR('',#996,10.);
#303=VECTOR('',#997,10.);
#304=VECTOR('',#998,10.);
#305=VECTOR('',#1001,10.);
#306=VECTOR('',#1008,10.);
#307=VECTOR('',#1013,10.);
#308=VECTOR('',#1014,10.);
#309=VECTOR('',#1021,10.);
#310=VECTOR('',#1028,10.);
#311=VECTOR('',#1029,10.);
#312=VECTOR('',#1038,10.);
#313=VECTOR('',#1051,1.7);
#314=VECTOR('',#1054,1.7);
#315=VECTOR('',#1057,1.7);
#316=VECTOR('',#1060,1.7);
#317=VECTOR('',#1063,4.);
#318=VECTOR('',#1066,10.);
#319=VECTOR('',#1069,4.);
#320=VECTOR('',#1072,10.);
#321=VECTOR('',#1073,10.);
#322=VECTOR('',#1074,10.);
#323=VECTOR('',#1075,10.);
#324=VECTOR('',#1076,10.);
#325=VECTOR('',#1079,10.);
#326=VECTOR('',#1080,10.);
#327=VECTOR('',#1085,10.);
#328=VECTOR('',#1086,10.);
#329=VECTOR('',#1087,10.);
#330=VECTOR('',#1090,10.);
#331=VECTOR('',#1091,10.);
#332=VECTOR('',#1094,10.);
#333=VECTOR('',#1095,10.);
#334=VECTOR('',#1102,4.);
#335=VECTOR('',#1109,2.);
#336=VERTEX_POINT('',#1112);
#337=VERTEX_POINT('',#1113);
#338=VERTEX_POINT('',#1115);
#339=VERTEX_POINT('',#1117);
#340=VERTEX_POINT('',#1119);
#341=VERTEX_POINT('',#1121);
#342=VERTEX_POINT('',#1123);
#343=VERTEX_POINT('',#1125);
#344=VERTEX_POINT('',#1127);
#345=VERTEX_POINT('',#1129);
#346=VERTEX_POINT('',#1133);
#347=VERTEX_POINT('',#1135);
#348=VERTEX_POINT('',#1137);
#349=VERTEX_POINT('',#1139);
#350=VERTEX_POINT('',#1141);
#351=VERTEX_POINT('',#1143);
#352=VERTEX_POINT('',#1147);
#353=VERTEX_POINT('',#1148);
#354=VERTEX_POINT('',#1150);
#355=VERTEX_POINT('',#1152);
#356=VERTEX_POINT('',#1157);
#357=VERTEX_POINT('',#1159);
#358=VERTEX_POINT('',#1161);
#359=VERTEX_POINT('',#1163);
#360=VERTEX_POINT('',#1165);
#361=VERTEX_POINT('',#1169);
#362=VERTEX_POINT('',#1171);
#363=VERTEX_POINT('',#1175);
#364=VERTEX_POINT('',#1177);
#365=VERTEX_POINT('',#1181);
#366=VERTEX_POINT('',#1183);
#367=VERTEX_POINT('',#1187);
#368=VERTEX_POINT('',#1189);
#369=VERTEX_POINT('',#1193);
#370=VERTEX_POINT('',#1194);
#371=VERTEX_POINT('',#1196);
#372=VERTEX_POINT('',#1198);
#373=VERTEX_POINT('',#1202);
#374=VERTEX_POINT('',#1204);
#375=VERTEX_POINT('',#1208);
#376=VERTEX_POINT('',#1210);
#377=VERTEX_POINT('',#1212);
#378=VERTEX_POINT('',#1216);
#379=VERTEX_POINT('',#1218);
#380=VERTEX_POINT('',#1220);
#381=VERTEX_POINT('',#1224);
#382=VERTEX_POINT('',#1226);
#383=VERTEX_POINT('',#1230);
#384=VERTEX_POINT('',#1232);
#385=VERTEX_POINT('',#1236);
#386=VERTEX_POINT('',#1238);
#387=VERTEX_POINT('',#1242);
#388=VERTEX_POINT('',#1244);
#389=VERTEX_POINT('',#1249);
#390=VERTEX_POINT('',#1251);
#391=VERTEX_POINT('',#1255);
#392=VERTEX_POINT('',#1258);
#393=VERTEX_POINT('',#1261);
#394=VERTEX_POINT('',#1263);
#395=VERTEX_POINT('',#1268);
#396=VERTEX_POINT('',#1271);
#397=VERTEX_POINT('',#1274);
#398=VERTEX_POINT('',#1277);
#399=VERTEX_POINT('',#1282);
#400=VERTEX_POINT('',#1285);
#401=VERTEX_POINT('',#1303);
#402=VERTEX_POINT('',#1305);
#403=VERTEX_POINT('',#1307);
#404=VERTEX_POINT('',#1309);
#405=VERTEX_POINT('',#1313);
#406=VERTEX_POINT('',#1316);
#407=VERTEX_POINT('',#1319);
#408=VERTEX_POINT('',#1320);
#409=VERTEX_POINT('',#1325);
#410=VERTEX_POINT('',#1333);
#411=VERTEX_POINT('',#1335);
#412=EDGE_CURVE('',#336,#337,#146,.T.);
#413=EDGE_CURVE('',#338,#336,#147,.T.);
#414=EDGE_CURVE('',#339,#338,#148,.T.);
#415=EDGE_CURVE('',#340,#339,#149,.T.);
#416=EDGE_CURVE('',#340,#341,#150,.T.);
#417=EDGE_CURVE('',#342,#341,#151,.T.);
#418=EDGE_CURVE('',#342,#343,#152,.T.);
#419=EDGE_CURVE('',#343,#344,#153,.T.);
#420=EDGE_CURVE('',#344,#345,#154,.T.);
#421=EDGE_CURVE('',#337,#345,#155,.T.);
#422=EDGE_CURVE('',#346,#340,#156,.T.);
#423=EDGE_CURVE('',#347,#346,#157,.T.);
#424=EDGE_CURVE('',#348,#347,#158,.T.);
#425=EDGE_CURVE('',#348,#349,#159,.T.);
#426=EDGE_CURVE('',#349,#350,#160,.T.);
#427=EDGE_CURVE('',#350,#351,#161,.T.);
#428=EDGE_CURVE('',#341,#351,#162,.T.);
#429=EDGE_CURVE('',#352,#353,#163,.T.);
#430=EDGE_CURVE('',#352,#354,#164,.T.);
#431=EDGE_CURVE('',#355,#354,#165,.T.);
#432=EDGE_CURVE('',#353,#355,#166,.T.);
#433=EDGE_CURVE('',#353,#346,#167,.T.);
#434=EDGE_CURVE('',#356,#355,#168,.T.);
#435=EDGE_CURVE('',#356,#357,#169,.T.);
#436=EDGE_CURVE('',#358,#357,#170,.T.);
#437=EDGE_CURVE('',#358,#359,#171,.T.);
#438=EDGE_CURVE('',#359,#360,#172,.T.);
#439=EDGE_CURVE('',#347,#360,#173,.T.);
#440=EDGE_CURVE('',#361,#352,#174,.T.);
#441=EDGE_CURVE('',#361,#362,#175,.T.);
#442=EDGE_CURVE('',#354,#362,#176,.T.);
#443=EDGE_CURVE('',#363,#363,#32,.T.);
#444=EDGE_CURVE('',#363,#364,#177,.T.);
#445=EDGE_CURVE('',#364,#364,#33,.T.);
#446=EDGE_CURVE('',#365,#365,#34,.T.);
#447=EDGE_CURVE('',#365,#366,#178,.T.);
#448=EDGE_CURVE('',#366,#366,#35,.T.);
#449=EDGE_CURVE('',#367,#348,#179,.T.);
#450=EDGE_CURVE('',#368,#367,#180,.T.);
#451=EDGE_CURVE('',#349,#368,#181,.T.);
#452=EDGE_CURVE('',#369,#370,#182,.T.);
#453=EDGE_CURVE('',#371,#369,#183,.T.);
#454=EDGE_CURVE('',#372,#371,#184,.T.);
#455=EDGE_CURVE('',#370,#372,#185,.T.);
#456=EDGE_CURVE('',#373,#367,#186,.T.);
#457=EDGE_CURVE('',#374,#373,#187,.T.);
#458=EDGE_CURVE('',#368,#374,#188,.T.);
#459=EDGE_CURVE('',#345,#375,#189,.T.);
#460=EDGE_CURVE('',#376,#342,#190,.T.);
#461=EDGE_CURVE('',#376,#377,#191,.T.);
#462=EDGE_CURVE('',#377,#369,#192,.T.);
#463=EDGE_CURVE('',#360,#370,#193,.T.);
#464=EDGE_CURVE('',#378,#358,#194,.T.);
#465=EDGE_CURVE('',#379,#378,#195,.T.);
#466=EDGE_CURVE('',#380,#379,#196,.T.);
#467=EDGE_CURVE('',#375,#380,#197,.T.);
#468=EDGE_CURVE('',#381,#376,#198,.T.);
#469=EDGE_CURVE('',#382,#381,#199,.T.);
#470=EDGE_CURVE('',#377,#382,#200,.T.);
#471=EDGE_CURVE('',#383,#350,#201,.T.);
#472=EDGE_CURVE('',#384,#383,#202,.T.);
#473=EDGE_CURVE('',#351,#384,#203,.T.);
#474=EDGE_CURVE('',#385,#381,#204,.T.);
#475=EDGE_CURVE('',#386,#385,#205,.T.);
#476=EDGE_CURVE('',#382,#386,#206,.T.);
#477=EDGE_CURVE('',#387,#383,#207,.T.);
#478=EDGE_CURVE('',#388,#387,#208,.T.);
#479=EDGE_CURVE('',#384,#388,#209,.T.);
#480=EDGE_CURVE('',#388,#385,#210,.T.);
#481=EDGE_CURVE('',#389,#389,#36,.T.);
#482=EDGE_CURVE('',#390,#390,#37,.T.);
#483=EDGE_CURVE('',#362,#356,#211,.T.);
#484=EDGE_CURVE('',#391,#391,#38,.T.);
#485=EDGE_CURVE('',#372,#392,#212,.T.);
#486=EDGE_CURVE('',#392,#373,#213,.T.);
#487=EDGE_CURVE('',#393,#393,#39,.T.);
#488=EDGE_CURVE('',#394,#394,#40,.T.);
#489=EDGE_CURVE('',#386,#387,#214,.T.);
#490=EDGE_CURVE('',#395,#395,#41,.T.);
#491=EDGE_CURVE('',#374,#396,#215,.T.);
#492=EDGE_CURVE('',#396,#371,#216,.T.);
#493=EDGE_CURVE('',#397,#397,#42,.T.);
#494=EDGE_CURVE('',#398,#398,#43,.T.);
#495=EDGE_CURVE('',#392,#396,#217,.T.);
#496=EDGE_CURVE('',#399,#399,#44,.T.);
#497=EDGE_CURVE('',#400,#400,#45,.T.);
#498=EDGE_CURVE('',#393,#395,#218,.T.);
#499=EDGE_CURVE('',#389,#398,#219,.T.);
#500=EDGE_CURVE('',#390,#399,#220,.T.);
#501=EDGE_CURVE('',#394,#400,#221,.T.);
#502=EDGE_CURVE('',#391,#363,#222,.T.);
#503=EDGE_CURVE('',#357,#361,#223,.T.);
#504=EDGE_CURVE('',#397,#365,#224,.T.);
#505=EDGE_CURVE('',#337,#401,#225,.T.);
#506=EDGE_CURVE('',#402,#401,#226,.T.);
#507=EDGE_CURVE('',#402,#403,#227,.T.);
#508=EDGE_CURVE('',#403,#404,#228,.T.);
#509=EDGE_CURVE('',#336,#404,#229,.T.);
#510=EDGE_CURVE('',#405,#339,#230,.T.);
#511=EDGE_CURVE('',#401,#405,#231,.T.);
#512=EDGE_CURVE('',#406,#406,#46,.T.);
#513=EDGE_CURVE('',#407,#408,#232,.T.);
#514=EDGE_CURVE('',#404,#408,#233,.T.);
#515=EDGE_CURVE('',#403,#407,#234,.T.);
#516=EDGE_CURVE('',#409,#405,#235,.T.);
#517=EDGE_CURVE('',#402,#409,#236,.T.);
#518=EDGE_CURVE('',#408,#338,#237,.T.);
#519=EDGE_CURVE('',#409,#407,#238,.T.);
#520=EDGE_CURVE('',#410,#410,#47,.T.);
#521=EDGE_CURVE('',#410,#411,#239,.T.);
#522=EDGE_CURVE('',#411,#411,#48,.T.);
#523=EDGE_CURVE('',#411,#406,#240,.T.);
#524=ORIENTED_EDGE('',*,*,#412,.F.);
#525=ORIENTED_EDGE('',*,*,#413,.F.);
#526=ORIENTED_EDGE('',*,*,#414,.F.);
#527=ORIENTED_EDGE('',*,*,#415,.F.);
#528=ORIENTED_EDGE('',*,*,#416,.T.);
#529=ORIENTED_EDGE('',*,*,#417,.F.);
#530=ORIENTED_EDGE('',*,*,#418,.T.);
#531=ORIENTED_EDGE('',*,*,#419,.T.);
#532=ORIENTED_EDGE('',*,*,#420,.T.);
#533=ORIENTED_EDGE('',*,*,#421,.F.);
#534=ORIENTED_EDGE('',*,*,#422,.F.);
#535=ORIENTED_EDGE('',*,*,#423,.F.);
#536=ORIENTED_EDGE('',*,*,#424,.F.);
#537=ORIENTED_EDGE('',*,*,#425,.T.);
#538=ORIENTED_EDGE('',*,*,#426,.T.);
#539=ORIENTED_EDGE('',*,*,#427,.T.);
#540=ORIENTED_EDGE('',*,*,#428,.F.);
#541=ORIENTED_EDGE('',*,*,#416,.F.);
#542=ORIENTED_EDGE('',*,*,#429,.F.);
#543=ORIENTED_EDGE('',*,*,#430,.T.);
#544=ORIENTED_EDGE('',*,*,#431,.F.);
#545=ORIENTED_EDGE('',*,*,#432,.F.);
#546=ORIENTED_EDGE('',*,*,#433,.F.);
#547=ORIENTED_EDGE('',*,*,#432,.T.);
#548=ORIENTED_EDGE('',*,*,#434,.F.);
#549=ORIENTED_EDGE('',*,*,#435,.T.);
#550=ORIENTED_EDGE('',*,*,#436,.F.);
#551=ORIENTED_EDGE('',*,*,#437,.T.);
#552=ORIENTED_EDGE('',*,*,#438,.T.);
#553=ORIENTED_EDGE('',*,*,#439,.F.);
#554=ORIENTED_EDGE('',*,*,#423,.T.);
#555=ORIENTED_EDGE('',*,*,#440,.F.);
#556=ORIENTED_EDGE('',*,*,#441,.T.);
#557=ORIENTED_EDGE('',*,*,#442,.F.);
#558=ORIENTED_EDGE('',*,*,#430,.F.);
#559=ORIENTED_EDGE('',*,*,#443,.F.);
#560=ORIENTED_EDGE('',*,*,#444,.T.);
#561=ORIENTED_EDGE('',*,*,#445,.F.);
#562=ORIENTED_EDGE('',*,*,#444,.F.);
#563=ORIENTED_EDGE('',*,*,#446,.F.);
#564=ORIENTED_EDGE('',*,*,#447,.T.);
#565=ORIENTED_EDGE('',*,*,#448,.F.);
#566=ORIENTED_EDGE('',*,*,#447,.F.);
#567=ORIENTED_EDGE('',*,*,#425,.F.);
#568=ORIENTED_EDGE('',*,*,#449,.F.);
#569=ORIENTED_EDGE('',*,*,#450,.F.);
#570=ORIENTED_EDGE('',*,*,#451,.F.);
#571=ORIENTED_EDGE('',*,*,#452,.F.);
#572=ORIENTED_EDGE('',*,*,#453,.F.);
#573=ORIENTED_EDGE('',*,*,#454,.F.);
#574=ORIENTED_EDGE('',*,*,#455,.F.);
#575=ORIENTED_EDGE('',*,*,#450,.T.);
#576=ORIENTED_EDGE('',*,*,#456,.F.);
#577=ORIENTED_EDGE('',*,*,#457,.F.);
#578=ORIENTED_EDGE('',*,*,#458,.F.);
#579=ORIENTED_EDGE('',*,*,#459,.F.);
#580=ORIENTED_EDGE('',*,*,#420,.F.);
#581=ORIENTED_EDGE('',*,*,#419,.F.);
#582=ORIENTED_EDGE('',*,*,#418,.F.);
#583=ORIENTED_EDGE('',*,*,#460,.F.);
#584=ORIENTED_EDGE('',*,*,#461,.T.);
#585=ORIENTED_EDGE('',*,*,#462,.T.);
#586=ORIENTED_EDGE('',*,*,#452,.T.);
#587=ORIENTED_EDGE('',*,*,#463,.F.);
#588=ORIENTED_EDGE('',*,*,#438,.F.);
#589=ORIENTED_EDGE('',*,*,#437,.F.);
#590=ORIENTED_EDGE('',*,*,#464,.F.);
#591=ORIENTED_EDGE('',*,*,#465,.F.);
#592=ORIENTED_EDGE('',*,*,#466,.F.);
#593=ORIENTED_EDGE('',*,*,#467,.F.);
#594=ORIENTED_EDGE('',*,*,#461,.F.);
#595=ORIENTED_EDGE('',*,*,#468,.F.);
#596=ORIENTED_EDGE('',*,*,#469,.F.);
#597=ORIENTED_EDGE('',*,*,#470,.F.);
#598=ORIENTED_EDGE('',*,*,#427,.F.);
#599=ORIENTED_EDGE('',*,*,#471,.F.);
#600=ORIENTED_EDGE('',*,*,#472,.F.);
#601=ORIENTED_EDGE('',*,*,#473,.F.);
#602=ORIENTED_EDGE('',*,*,#469,.T.);
#603=ORIENTED_EDGE('',*,*,#474,.F.);
#604=ORIENTED_EDGE('',*,*,#475,.F.);
#605=ORIENTED_EDGE('',*,*,#476,.F.);
#606=ORIENTED_EDGE('',*,*,#472,.T.);
#607=ORIENTED_EDGE('',*,*,#477,.F.);
#608=ORIENTED_EDGE('',*,*,#478,.F.);
#609=ORIENTED_EDGE('',*,*,#479,.F.);
#610=ORIENTED_EDGE('',*,*,#468,.T.);
#611=ORIENTED_EDGE('',*,*,#460,.T.);
#612=ORIENTED_EDGE('',*,*,#417,.T.);
#613=ORIENTED_EDGE('',*,*,#428,.T.);
#614=ORIENTED_EDGE('',*,*,#473,.T.);
#615=ORIENTED_EDGE('',*,*,#479,.T.);
#616=ORIENTED_EDGE('',*,*,#480,.T.);
#617=ORIENTED_EDGE('',*,*,#474,.T.);
#618=ORIENTED_EDGE('',*,*,#481,.T.);
#619=ORIENTED_EDGE('',*,*,#482,.T.);
#620=ORIENTED_EDGE('',*,*,#442,.T.);
#621=ORIENTED_EDGE('',*,*,#483,.T.);
#622=ORIENTED_EDGE('',*,*,#434,.T.);
#623=ORIENTED_EDGE('',*,*,#431,.T.);
#624=ORIENTED_EDGE('',*,*,#484,.T.);
#625=ORIENTED_EDGE('',*,*,#449,.T.);
#626=ORIENTED_EDGE('',*,*,#424,.T.);
#627=ORIENTED_EDGE('',*,*,#439,.T.);
#628=ORIENTED_EDGE('',*,*,#463,.T.);
#629=ORIENTED_EDGE('',*,*,#455,.T.);
#630=ORIENTED_EDGE('',*,*,#485,.T.);
#631=ORIENTED_EDGE('',*,*,#486,.T.);
#632=ORIENTED_EDGE('',*,*,#456,.T.);
#633=ORIENTED_EDGE('',*,*,#487,.T.);
#634=ORIENTED_EDGE('',*,*,#488,.T.);
#635=ORIENTED_EDGE('',*,*,#478,.T.);
#636=ORIENTED_EDGE('',*,*,#489,.F.);
#637=ORIENTED_EDGE('',*,*,#475,.T.);
#638=ORIENTED_EDGE('',*,*,#480,.F.);
#639=ORIENTED_EDGE('',*,*,#490,.T.);
#640=ORIENTED_EDGE('',*,*,#462,.F.);
#641=ORIENTED_EDGE('',*,*,#470,.T.);
#642=ORIENTED_EDGE('',*,*,#476,.T.);
#643=ORIENTED_EDGE('',*,*,#489,.T.);
#644=ORIENTED_EDGE('',*,*,#477,.T.);
#645=ORIENTED_EDGE('',*,*,#471,.T.);
#646=ORIENTED_EDGE('',*,*,#426,.F.);
#647=ORIENTED_EDGE('',*,*,#451,.T.);
#648=ORIENTED_EDGE('',*,*,#458,.T.);
#649=ORIENTED_EDGE('',*,*,#491,.T.);
#650=ORIENTED_EDGE('',*,*,#492,.T.);
#651=ORIENTED_EDGE('',*,*,#453,.T.);
#652=ORIENTED_EDGE('',*,*,#493,.T.);
#653=ORIENTED_EDGE('',*,*,#494,.T.);
#654=ORIENTED_EDGE('',*,*,#457,.T.);
#655=ORIENTED_EDGE('',*,*,#486,.F.);
#656=ORIENTED_EDGE('',*,*,#495,.T.);
#657=ORIENTED_EDGE('',*,*,#491,.F.);
#658=ORIENTED_EDGE('',*,*,#496,.T.);
#659=ORIENTED_EDGE('',*,*,#497,.T.);
#660=ORIENTED_EDGE('',*,*,#454,.T.);
#661=ORIENTED_EDGE('',*,*,#492,.F.);
#662=ORIENTED_EDGE('',*,*,#495,.F.);
#663=ORIENTED_EDGE('',*,*,#485,.F.);
#664=ORIENTED_EDGE('',*,*,#487,.F.);
#665=ORIENTED_EDGE('',*,*,#498,.T.);
#666=ORIENTED_EDGE('',*,*,#490,.F.);
#667=ORIENTED_EDGE('',*,*,#498,.F.);
#668=ORIENTED_EDGE('',*,*,#481,.F.);
#669=ORIENTED_EDGE('',*,*,#499,.T.);
#670=ORIENTED_EDGE('',*,*,#494,.F.);
#671=ORIENTED_EDGE('',*,*,#499,.F.);
#672=ORIENTED_EDGE('',*,*,#482,.F.);
#673=ORIENTED_EDGE('',*,*,#500,.T.);
#674=ORIENTED_EDGE('',*,*,#496,.F.);
#675=ORIENTED_EDGE('',*,*,#500,.F.);
#676=ORIENTED_EDGE('',*,*,#488,.F.);
#677=ORIENTED_EDGE('',*,*,#501,.T.);
#678=ORIENTED_EDGE('',*,*,#497,.F.);
#679=ORIENTED_EDGE('',*,*,#501,.F.);
#680=ORIENTED_EDGE('',*,*,#484,.F.);
#681=ORIENTED_EDGE('',*,*,#502,.T.);
#682=ORIENTED_EDGE('',*,*,#443,.T.);
#683=ORIENTED_EDGE('',*,*,#502,.F.);
#684=ORIENTED_EDGE('',*,*,#503,.F.);
#685=ORIENTED_EDGE('',*,*,#435,.F.);
#686=ORIENTED_EDGE('',*,*,#483,.F.);
#687=ORIENTED_EDGE('',*,*,#441,.F.);
#688=ORIENTED_EDGE('',*,*,#493,.F.);
#689=ORIENTED_EDGE('',*,*,#504,.T.);
#690=ORIENTED_EDGE('',*,*,#446,.T.);
#691=ORIENTED_EDGE('',*,*,#504,.F.);
#692=ORIENTED_EDGE('',*,*,#412,.T.);
#693=ORIENTED_EDGE('',*,*,#505,.T.);
#694=ORIENTED_EDGE('',*,*,#506,.F.);
#695=ORIENTED_EDGE('',*,*,#507,.T.);
#696=ORIENTED_EDGE('',*,*,#508,.T.);
#697=ORIENTED_EDGE('',*,*,#509,.F.);
#698=ORIENTED_EDGE('',*,*,#510,.F.);
#699=ORIENTED_EDGE('',*,*,#511,.F.);
#700=ORIENTED_EDGE('',*,*,#505,.F.);
#701=ORIENTED_EDGE('',*,*,#421,.T.);
#702=ORIENTED_EDGE('',*,*,#459,.T.);
#703=ORIENTED_EDGE('',*,*,#467,.T.);
#704=ORIENTED_EDGE('',*,*,#466,.T.);
#705=ORIENTED_EDGE('',*,*,#465,.T.);
#706=ORIENTED_EDGE('',*,*,#464,.T.);
#707=ORIENTED_EDGE('',*,*,#436,.T.);
#708=ORIENTED_EDGE('',*,*,#503,.T.);
#709=ORIENTED_EDGE('',*,*,#440,.T.);
#710=ORIENTED_EDGE('',*,*,#429,.T.);
#711=ORIENTED_EDGE('',*,*,#433,.T.);
#712=ORIENTED_EDGE('',*,*,#422,.T.);
#713=ORIENTED_EDGE('',*,*,#415,.T.);
#714=ORIENTED_EDGE('',*,*,#445,.T.);
#715=ORIENTED_EDGE('',*,*,#448,.T.);
#716=ORIENTED_EDGE('',*,*,#512,.T.);
#717=ORIENTED_EDGE('',*,*,#513,.T.);
#718=ORIENTED_EDGE('',*,*,#514,.F.);
#719=ORIENTED_EDGE('',*,*,#508,.F.);
#720=ORIENTED_EDGE('',*,*,#515,.T.);
#721=ORIENTED_EDGE('',*,*,#511,.T.);
#722=ORIENTED_EDGE('',*,*,#516,.F.);
#723=ORIENTED_EDGE('',*,*,#517,.F.);
#724=ORIENTED_EDGE('',*,*,#506,.T.);
#725=ORIENTED_EDGE('',*,*,#414,.T.);
#726=ORIENTED_EDGE('',*,*,#518,.F.);
#727=ORIENTED_EDGE('',*,*,#513,.F.);
#728=ORIENTED_EDGE('',*,*,#519,.F.);
#729=ORIENTED_EDGE('',*,*,#516,.T.);
#730=ORIENTED_EDGE('',*,*,#510,.T.);
#731=ORIENTED_EDGE('',*,*,#517,.T.);
#732=ORIENTED_EDGE('',*,*,#519,.T.);
#733=ORIENTED_EDGE('',*,*,#515,.F.);
#734=ORIENTED_EDGE('',*,*,#507,.F.);
#735=ORIENTED_EDGE('',*,*,#520,.F.);
#736=ORIENTED_EDGE('',*,*,#521,.T.);
#737=ORIENTED_EDGE('',*,*,#522,.T.);
#738=ORIENTED_EDGE('',*,*,#521,.F.);
#739=ORIENTED_EDGE('',*,*,#413,.T.);
#740=ORIENTED_EDGE('',*,*,#509,.T.);
#741=ORIENTED_EDGE('',*,*,#514,.T.);
#742=ORIENTED_EDGE('',*,*,#518,.T.);
#743=ORIENTED_EDGE('',*,*,#520,.T.);
#744=ORIENTED_EDGE('',*,*,#522,.F.);
#745=ORIENTED_EDGE('',*,*,#523,.T.);
#746=ORIENTED_EDGE('',*,*,#512,.F.);
#747=ORIENTED_EDGE('',*,*,#523,.F.);
#748=PLANE('',#836);
#749=PLANE('',#837);
#750=PLANE('',#838);
#751=PLANE('',#839);
#752=PLANE('',#840);
#753=PLANE('',#847);
#754=PLANE('',#848);
#755=PLANE('',#849);
#756=PLANE('',#850);
#757=PLANE('',#851);
#758=PLANE('',#852);
#759=PLANE('',#853);
#760=PLANE('',#854);
#761=PLANE('',#855);
#762=PLANE('',#858);
#763=PLANE('',#860);
#764=PLANE('',#863);
#765=PLANE('',#864);
#766=PLANE('',#866);
#767=PLANE('',#868);
#768=PLANE('',#870);
#769=PLANE('',#871);
#770=PLANE('',#873);
#771=PLANE('',#875);
#772=PLANE('',#881);
#773=PLANE('',#883);
#774=PLANE('',#884);
#775=PLANE('',#886);
#776=PLANE('',#887);
#777=PLANE('',#888);
#778=PLANE('',#889);
#779=PLANE('',#893);
#780=ADVANCED_FACE('',(#52),#748,.T.);
#781=ADVANCED_FACE('',(#53),#749,.T.);
#782=ADVANCED_FACE('',(#54),#750,.T.);
#783=ADVANCED_FACE('',(#55),#751,.T.);
#784=ADVANCED_FACE('',(#56),#752,.T.);
#785=ADVANCED_FACE('',(#57),#49,.F.);
#786=ADVANCED_FACE('',(#58),#50,.F.);
#787=ADVANCED_FACE('',(#59),#753,.F.);
#788=ADVANCED_FACE('',(#60),#754,.F.);
#789=ADVANCED_FACE('',(#61),#755,.F.);
#790=ADVANCED_FACE('',(#62),#756,.F.);
#791=ADVANCED_FACE('',(#63),#757,.F.);
#792=ADVANCED_FACE('',(#64),#758,.F.);
#793=ADVANCED_FACE('',(#65),#759,.F.);
#794=ADVANCED_FACE('',(#66),#760,.F.);
#795=ADVANCED_FACE('',(#67,#22,#23),#761,.T.);
#796=ADVANCED_FACE('',(#68,#24),#762,.F.);
#797=ADVANCED_FACE('',(#69,#25,#26),#763,.T.);
#798=ADVANCED_FACE('',(#70),#764,.T.);
#799=ADVANCED_FACE('',(#71),#765,.F.);
#800=ADVANCED_FACE('',(#72,#27),#766,.F.);
#801=ADVANCED_FACE('',(#73),#767,.F.);
#802=ADVANCED_FACE('',(#74),#768,.T.);
#803=ADVANCED_FACE('',(#75),#769,.F.);
#804=ADVANCED_FACE('',(#76),#770,.F.);
#805=ADVANCED_FACE('',(#77),#771,.F.);
#806=ADVANCED_FACE('',(#78),#15,.F.);
#807=ADVANCED_FACE('',(#79),#16,.F.);
#808=ADVANCED_FACE('',(#80),#17,.F.);
#809=ADVANCED_FACE('',(#81),#18,.F.);
#810=ADVANCED_FACE('',(#82),#19,.F.);
#811=ADVANCED_FACE('',(#83),#772,.T.);
#812=ADVANCED_FACE('',(#84),#20,.F.);
#813=ADVANCED_FACE('',(#85),#773,.T.);
#814=ADVANCED_FACE('',(#86,#28,#29,#30),#774,.T.);
#815=ADVANCED_FACE('',(#87),#775,.F.);
#816=ADVANCED_FACE('',(#88),#776,.T.);
#817=ADVANCED_FACE('',(#89),#777,.T.);
#818=ADVANCED_FACE('',(#90),#778,.T.);
#819=ADVANCED_FACE('',(#91),#21,.F.);
#820=ADVANCED_FACE('',(#92,#31),#779,.F.);
#821=ADVANCED_FACE('',(#93),#51,.F.);
#822=CLOSED_SHELL('',(#780,#781,#782,#783,#784,#785,#786,#787,#788,#789,
#790,#791,#792,#793,#794,#795,#796,#797,#798,#799,#800,#801,#802,#803,#804,
#805,#806,#807,#808,#809,#810,#811,#812,#813,#814,#815,#816,#817,#818,#819,
#820,#821));
#823=DERIVED_UNIT_ELEMENT(#825,1.);
#824=DERIVED_UNIT_ELEMENT(#1346,-3.);
#825=(
MASS_UNIT()
NAMED_UNIT(*)
SI_UNIT(.KILO.,.GRAM.)
);
#826=DERIVED_UNIT((#823,#824));
#827=MEASURE_REPRESENTATION_ITEM('density measure',
POSITIVE_RATIO_MEASURE(1000.),#826);
#828=PROPERTY_DEFINITION_REPRESENTATION(#833,#830);
#829=PROPERTY_DEFINITION_REPRESENTATION(#834,#831);
#830=REPRESENTATION('material name',(#832),#1343);
#831=REPRESENTATION('density',(#827),#1343);
#832=DESCRIPTIVE_REPRESENTATION_ITEM('Generic','Generic');
#833=PROPERTY_DEFINITION('material property','material name',#1353);
#834=PROPERTY_DEFINITION('material property','density of part',#1353);
#835=AXIS2_PLACEMENT_3D('',#1110,#895,#896);
#836=AXIS2_PLACEMENT_3D('',#1111,#897,#898);
#837=AXIS2_PLACEMENT_3D('',#1132,#909,#910);
#838=AXIS2_PLACEMENT_3D('',#1146,#918,#919);
#839=AXIS2_PLACEMENT_3D('',#1155,#924,#925);
#840=AXIS2_PLACEMENT_3D('',#1168,#933,#934);
#841=AXIS2_PLACEMENT_3D('',#1174,#938,#939);
#842=AXIS2_PLACEMENT_3D('',#1176,#940,#941);
#843=AXIS2_PLACEMENT_3D('',#1179,#943,#944);
#844=AXIS2_PLACEMENT_3D('',#1180,#945,#946);
#845=AXIS2_PLACEMENT_3D('',#1182,#947,#948);
#846=AXIS2_PLACEMENT_3D('',#1185,#950,#951);
#847=AXIS2_PLACEMENT_3D('',#1186,#952,#953);
#848=AXIS2_PLACEMENT_3D('',#1192,#957,#958);
#849=AXIS2_PLACEMENT_3D('',#1201,#963,#964);
#850=AXIS2_PLACEMENT_3D('',#1207,#968,#969);
#851=AXIS2_PLACEMENT_3D('',#1223,#979,#980);
#852=AXIS2_PLACEMENT_3D('',#1229,#984,#985);
#853=AXIS2_PLACEMENT_3D('',#1235,#989,#990);
#854=AXIS2_PLACEMENT_3D('',#1241,#994,#995);
#855=AXIS2_PLACEMENT_3D('',#1247,#999,#1000);
#856=AXIS2_PLACEMENT_3D('',#1250,#1002,#1003);
#857=AXIS2_PLACEMENT_3D('',#1252,#1004,#1005);
#858=AXIS2_PLACEMENT_3D('',#1253,#1006,#1007);
#859=AXIS2_PLACEMENT_3D('',#1256,#1009,#1010);
#860=AXIS2_PLACEMENT_3D('',#1257,#1011,#1012);
#861=AXIS2_PLACEMENT_3D('',#1262,#1015,#1016);
#862=AXIS2_PLACEMENT_3D('',#1264,#1017,#1018);
#863=AXIS2_PLACEMENT_3D('',#1265,#1019,#1020);
#864=AXIS2_PLACEMENT_3D('',#1267,#1022,#1023);
#865=AXIS2_PLACEMENT_3D('',#1269,#1024,#1025);
#866=AXIS2_PLACEMENT_3D('',#1270,#1026,#1027);
#867=AXIS2_PLACEMENT_3D('',#1275,#1030,#1031);
#868=AXIS2_PLACEMENT_3D('',#1276,#1032,#1033);
#869=AXIS2_PLACEMENT_3D('',#1278,#1034,#1035);
#870=AXIS2_PLACEMENT_3D('',#1279,#1036,#1037);
#871=AXIS2_PLACEMENT_3D('',#1281,#1039,#1040);
#872=AXIS2_PLACEMENT_3D('',#1283,#1041,#1042);
#873=AXIS2_PLACEMENT_3D('',#1284,#1043,#1044);
#874=AXIS2_PLACEMENT_3D('',#1286,#1045,#1046);
#875=AXIS2_PLACEMENT_3D('',#1287,#1047,#1048);
#876=AXIS2_PLACEMENT_3D('',#1288,#1049,#1050);
#877=AXIS2_PLACEMENT_3D('',#1290,#1052,#1053);
#878=AXIS2_PLACEMENT_3D('',#1292,#1055,#1056);
#879=AXIS2_PLACEMENT_3D('',#1294,#1058,#1059);
#880=AXIS2_PLACEMENT_3D('',#1296,#1061,#1062);
#881=AXIS2_PLACEMENT_3D('',#1298,#1064,#1065);
#882=AXIS2_PLACEMENT_3D('',#1300,#1067,#1068);
#883=AXIS2_PLACEMENT_3D('',#1302,#1070,#1071);
#884=AXIS2_PLACEMENT_3D('',#1312,#1077,#1078);
#885=AXIS2_PLACEMENT_3D('',#1317,#1081,#1082);
#886=AXIS2_PLACEMENT_3D('',#1318,#1083,#1084);
#887=AXIS2_PLACEMENT_3D('',#1324,#1088,#1089);
#888=AXIS2_PLACEMENT_3D('',#1328,#1092,#1093);
#889=AXIS2_PLACEMENT_3D('',#1331,#1096,#1097);
#890=AXIS2_PLACEMENT_3D('',#1332,#1098,#1099);
#891=AXIS2_PLACEMENT_3D('',#1334,#1100,#1101);
#892=AXIS2_PLACEMENT_3D('',#1337,#1103,#1104);
#893=AXIS2_PLACEMENT_3D('',#1338,#1105,#1106);
#894=AXIS2_PLACEMENT_3D('',#1339,#1107,#1108);
#895=DIRECTION('axis',(0.,0.,1.));
#896=DIRECTION('refdir',(1.,0.,0.));
#897=DIRECTION('center_axis',(2.22044604925031E-16,-1.,0.));
#898=DIRECTION('ref_axis',(-1.,-2.22044604925031E-16,1.22464679914735E-16));
#899=DIRECTION('',(-1.69500334317099E-16,-3.76366347681011E-32,-1.));
#900=DIRECTION('',(-1.,-2.22044604925031E-16,1.69500334317099E-16));
#901=DIRECTION('',(1.69500334317099E-16,3.76366347681011E-32,1.));
#902=DIRECTION('',(-1.,-2.22044604925031E-16,1.04478851505961E-16));
#903=DIRECTION('',(1.22464679914735E-16,2.71926214689378E-32,1.));
#904=DIRECTION('',(1.,6.83454918533246E-16,-1.22464679914735E-16));
#905=DIRECTION('',(0.,0.,-1.));
#906=DIRECTION('',(0.,0.,-1.));
#907=DIRECTION('',(0.,0.,-1.));
#908=DIRECTION('',(-1.,-2.22044604925031E-16,1.04478851505961E-16));
#909=DIRECTION('center_axis',(1.,2.20366685996127E-16,-1.22464679914735E-16));
#910=DIRECTION('ref_axis',(-1.22464679914735E-16,-2.71926214689378E-32,
-1.));
#911=DIRECTION('',(2.20366685996127E-16,-1.,1.62824502510654E-33));
#912=DIRECTION('',(-1.48029736616688E-16,-3.00408392194251E-32,-1.));
#913=DIRECTION('',(-2.22044604925031E-16,1.,0.));
#914=DIRECTION('',(-1.22464679914735E-16,0.,-1.));
#915=DIRECTION('',(2.20366685996127E-16,-1.,0.));
#916=DIRECTION('',(1.22464679914735E-16,0.,1.));
#917=DIRECTION('',(-2.22044604925031E-16,1.,0.));
#918=DIRECTION('center_axis',(1.,0.,-1.04478851505961E-16));
#919=DIRECTION('ref_axis',(-1.58172812835772E-32,-1.,-2.84486907059736E-49));
#920=DIRECTION('',(2.57560254298263E-48,-1.,2.46519032881566E-32));
#921=DIRECTION('',(1.04478851505961E-16,-9.67023907854669E-33,1.));
#922=DIRECTION('',(0.,1.,0.));
#923=DIRECTION('',(1.04478851505961E-16,2.51888099253797E-32,1.));
#924=DIRECTION('center_axis',(-1.11410578262859E-16,1.,-1.35487606628612E-32));
#925=DIRECTION('ref_axis',(1.,1.11410578262859E-16,-1.22464679914735E-16));
#926=DIRECTION('',(1.,1.11410578262859E-16,-1.04478851505961E-16));
#927=DIRECTION('',(1.,1.11410578262859E-16,-1.22464679914735E-16));
#928=DIRECTION('',(-1.04478851505961E-16,-2.51888099253797E-32,-1.));
#929=DIRECTION('',(1.,1.11410578262859E-16,-1.04478851505961E-16));
#930=DIRECTION('',(0.,1.35487606628612E-32,1.));
#931=DIRECTION('',(0.,1.35487606628612E-32,1.));
#932=DIRECTION('',(-1.,0.,0.));
#933=DIRECTION('center_axis',(-2.22044604925031E-16,1.,-3.99365616327569E-33));
#934=DIRECTION('ref_axis',(-1.04478851505961E-16,-2.46519032881566E-32,
-1.));
#935=DIRECTION('',(1.,2.22044604925031E-16,-1.04478851505961E-16));
#936=DIRECTION('',(1.04478851505961E-16,2.46519032881566E-32,1.));
#937=DIRECTION('',(-1.,-2.22044604925031E-16,1.22464679914735E-16));
#938=DIRECTION('center_axis',(1.04478851505961E-16,2.46519032881566E-32,
1.));
#939=DIRECTION('ref_axis',(-2.22044604925031E-16,1.,2.68212229469201E-32));
#940=DIRECTION('center_axis',(-1.04478851505961E-16,-2.46519032881566E-32,
-1.));
#941=DIRECTION('ref_axis',(-2.22044604925031E-16,1.,2.68212229469201E-32));
#942=DIRECTION('',(-1.39167242073638E-16,0.857167300702112,-0.515038074910054));
#943=DIRECTION('center_axis',(1.04478851505961E-16,2.46519032881566E-32,
1.));
#944=DIRECTION('ref_axis',(-2.22044604925031E-16,1.,2.68212229469201E-32));
#945=DIRECTION('center_axis',(1.22464679914735E-16,2.71926214689378E-32,
1.));
#946=DIRECTION('ref_axis',(1.,4.44089209850063E-16,-1.22464679914735E-16));
#947=DIRECTION('center_axis',(-1.22464679914735E-16,-2.71926214689378E-32,
-1.));
#948=DIRECTION('ref_axis',(1.,4.44089209850063E-16,-1.22464679914735E-16));
#949=DIRECTION('',(0.857167300702112,2.7568603016425E-16,-0.515038074910054));
#950=DIRECTION('center_axis',(1.04478851505961E-16,2.46519032881566E-32,
1.));
#951=DIRECTION('ref_axis',(1.,4.44089209850063E-16,-1.22464679914735E-16));
#952=DIRECTION('center_axis',(0.,1.,0.));
#953=DIRECTION('ref_axis',(0.,0.,1.));
#954=DIRECTION('',(1.,0.,-1.22464679914735E-16));
#955=DIRECTION('',(0.,0.,1.));
#956=DIRECTION('',(-1.,0.,0.));
#957=DIRECTION('center_axis',(0.,1.,0.));
#958=DIRECTION('ref_axis',(0.,0.,1.));
#959=DIRECTION('',(0.,0.,1.));
#960=DIRECTION('',(-1.,0.,0.));
#961=DIRECTION('',(0.,0.,-1.));
#962=DIRECTION('',(1.,0.,-1.22464679914735E-16));
#963=DIRECTION('center_axis',(1.,0.,0.));
#964=DIRECTION('ref_axis',(0.,0.,-1.));
#965=DIRECTION('',(0.,-1.,2.71926214689378E-32));
#966=DIRECTION('',(0.,0.,1.));
#967=DIRECTION('',(-4.28037674802591E-16,1.,2.52268753672091E-32));
#968=DIRECTION('center_axis',(1.,0.,0.));
#969=DIRECTION('ref_axis',(0.,0.,-1.));
#970=DIRECTION('',(0.,1.,-2.46519032881566E-32));
#971=DIRECTION('',(0.,-1.,2.71926214689378E-32));
#972=DIRECTION('',(0.,0.,-1.));
#973=DIRECTION('',(0.,1.,0.));
#974=DIRECTION('',(0.,-1.,2.71926214689378E-32));
#975=DIRECTION('',(0.,1.,-2.46519032881566E-32));
#976=DIRECTION('',(0.,1.,-2.71926214689378E-32));
#977=DIRECTION('',(0.,1.,-2.46519032881566E-32));
#978=DIRECTION('',(0.,1.,-2.71926214689378E-32));
#979=DIRECTION('center_axis',(0.,-1.,0.));
#980=DIRECTION('ref_axis',(0.,0.,-1.));
#981=DIRECTION('',(-1.,0.,1.22464679914735E-16));
#982=DIRECTION('',(0.,0.,1.));
#983=DIRECTION('',(1.,0.,0.));
#984=DIRECTION('center_axis',(0.,-1.,0.));
#985=DIRECTION('ref_axis',(0.,0.,-1.));
#986=DIRECTION('',(1.,0.,0.));
#987=DIRECTION('',(0.,0.,-1.));
#988=DIRECTION('',(-1.,0.,1.22464679914735E-16));
#989=DIRECTION('center_axis',(-1.,0.,0.));
#990=DIRECTION('ref_axis',(0.,0.,1.));
#991=DIRECTION('',(0.,1.,-2.71926214689378E-32));
#992=DIRECTION('',(1.70803542250024E-16,3.52520435664918E-32,1.));
#993=DIRECTION('',(0.,-1.,2.71926214689378E-32));
#994=DIRECTION('center_axis',(1.,0.,0.));
#995=DIRECTION('ref_axis',(0.,0.,-1.));
#996=DIRECTION('',(-4.28037674802591E-16,1.,2.52268753672091E-32));
#997=DIRECTION('',(2.89969000529397E-48,-6.77438033143062E-33,-1.));
#998=DIRECTION('',(0.,-1.,2.71926214689378E-32));
#999=DIRECTION('center_axis',(1.22464679914735E-16,2.71926214689378E-32,
1.));
#1000=DIRECTION('ref_axis',(-2.22044604925031E-16,1.,0.));
#1001=DIRECTION('',(-1.,3.33013568423603E-48,1.22464679914735E-16));
#1002=DIRECTION('center_axis',(-1.22464679914735E-16,-2.71926214689378E-32,
-1.));
#1003=DIRECTION('ref_axis',(2.22044604925031E-16,-1.,0.));
#1004=DIRECTION('center_axis',(-1.22464679914735E-16,-2.71926214689378E-32,
-1.));
#1005=DIRECTION('ref_axis',(2.22044604925031E-16,-1.,0.));
#1006=DIRECTION('center_axis',(-1.22464679914735E-16,-2.71926214689378E-32,
-1.));
#1007=DIRECTION('ref_axis',(2.22044604925031E-16,-1.,0.));
#1008=DIRECTION('',(-1.10634026662172E-16,-1.,-1.98984461971758E-33));
#1009=DIRECTION('center_axis',(-1.04478851505961E-16,-2.46519032881566E-32,
-1.));
#1010=DIRECTION('ref_axis',(-2.22044604925031E-16,1.,2.68212229469201E-32));
#1011=DIRECTION('center_axis',(1.22464679914735E-16,2.71926214689378E-32,
1.));
#1012=DIRECTION('ref_axis',(-2.22044604925031E-16,1.,0.));
#1013=DIRECTION('',(0.,1.,-2.71926214689378E-32));
#1014=DIRECTION('',(1.,-3.33013568423603E-48,-1.22464679914735E-16));
#1015=DIRECTION('center_axis',(-1.22464679914735E-16,-2.71926214689378E-32,
-1.));
#1016=DIRECTION('ref_axis',(2.22044604925031E-16,-1.,0.));
#1017=DIRECTION('center_axis',(-1.22464679914735E-16,-2.71926214689378E-32,
-1.));
#1018=DIRECTION('ref_axis',(2.22044604925031E-16,-1.,0.));
#1019=DIRECTION('center_axis',(-1.66727591593945E-16,1.,-6.77438033143062E-33));
#1020=DIRECTION('ref_axis',(-1.,-1.66727591593945E-16,1.22464679914735E-16));
#1021=DIRECTION('',(1.,2.20366685996127E-16,-1.22464679914735E-16));
#1022=DIRECTION('center_axis',(-1.22464679914735E-16,-2.71926214689378E-32,
-1.));
#1023=DIRECTION('ref_axis',(2.22044604925031E-16,-1.,0.));
#1024=DIRECTION('center_axis',(1.22464679914735E-16,2.71926214689378E-32,
1.));
#1025=DIRECTION('ref_axis',(2.22044604925031E-16,-1.,0.));
#1026=DIRECTION('center_axis',(-1.22464679914735E-16,-2.71926214689378E-32,
-1.));
#1027=DIRECTION('ref_axis',(2.22044604925031E-16,-1.,0.));
#1028=DIRECTION('',(-1.,-2.22044604925031E-16,1.22464679914735E-16));
#1029=DIRECTION('',(0.,-1.,2.71926214689378E-32));
#1030=DIRECTION('center_axis',(-1.22464679914735E-16,-2.71926214689378E-32,
-1.));
#1031=DIRECTION('ref_axis',(1.,4.44089209850063E-16,-1.22464679914735E-16));
#1032=DIRECTION('center_axis',(-1.22464679914735E-16,-2.71926214689378E-32,
-1.));
#1033=DIRECTION('ref_axis',(2.22044604925031E-16,-1.,0.));
#1034=DIRECTION('center_axis',(1.22464679914735E-16,2.71926214689378E-32,
1.));
#1035=DIRECTION('ref_axis',(2.22044604925031E-16,-1.,0.));
#1036=DIRECTION('center_axis',(2.22044604925031E-16,-1.,0.));
#1037=DIRECTION('ref_axis',(1.,2.22044604925031E-16,-1.22464679914735E-16));
#1038=DIRECTION('',(-1.70803542250024E-16,-3.79260050587025E-32,-1.));
#1039=DIRECTION('center_axis',(-1.22464679914735E-16,-2.71926214689378E-32,
-1.));
#1040=DIRECTION('ref_axis',(2.22044604925031E-16,-1.,0.));
#1041=DIRECTION('center_axis',(1.22464679914735E-16,2.71926214689378E-32,
1.));
#1042=DIRECTION('ref_axis',(2.22044604925031E-16,-1.,0.));
#1043=DIRECTION('center_axis',(-1.22464679914735E-16,-2.71926214689378E-32,
-1.));
#1044=DIRECTION('ref_axis',(2.22044604925031E-16,-1.,0.));
#1045=DIRECTION('center_axis',(1.22464679914735E-16,2.71926214689378E-32,
1.));
#1046=DIRECTION('ref_axis',(2.22044604925031E-16,-1.,0.));
#1047=DIRECTION('center_axis',(-1.,0.,0.));
#1048=DIRECTION('ref_axis',(0.,0.,1.));
#1049=DIRECTION('center_axis',(-1.22464679914735E-16,-2.71926214689378E-32,
-1.));
#1050=DIRECTION('ref_axis',(2.22044604925031E-16,-1.,0.));
#1051=DIRECTION('',(-1.22464679914735E-16,-2.71926214689378E-32,-1.));
#1052=DIRECTION('center_axis',(-1.22464679914735E-16,-2.71926214689378E-32,
-1.));
#1053=DIRECTION('ref_axis',(2.22044604925031E-16,-1.,0.));
#1054=DIRECTION('',(-1.22464679914735E-16,-2.71926214689378E-32,-1.));
#1055=DIRECTION('center_axis',(-1.22464679914735E-16,-2.71926214689378E-32,
-1.));
#1056=DIRECTION('ref_axis',(2.22044604925031E-16,-1.,0.));
#1057=DIRECTION('',(-1.22464679914735E-16,-2.71926214689378E-32,-1.));
#1058=DIRECTION('center_axis',(-1.22464679914735E-16,-2.71926214689378E-32,
-1.));
#1059=DIRECTION('ref_axis',(2.22044604925031E-16,-1.,0.));
#1060=DIRECTION('',(-1.22464679914735E-16,-2.71926214689378E-32,-1.));
#1061=DIRECTION('center_axis',(-1.04478851505961E-16,-2.46519032881566E-32,
-1.));
#1062=DIRECTION('ref_axis',(-2.22044604925031E-16,1.,2.68212229469201E-32));
#1063=DIRECTION('',(-1.04478851505961E-16,-2.46519032881566E-32,-1.));
#1064=DIRECTION('center_axis',(-1.,1.10634026662172E-16,1.04478851505961E-16));
#1065=DIRECTION('ref_axis',(1.10634026662172E-16,1.,-1.34175949353803E-32));
#1066=DIRECTION('',(1.10634026662172E-16,1.,-3.62108193313002E-32));
#1067=DIRECTION('center_axis',(-1.22464679914735E-16,-2.71926214689378E-32,
-1.));
#1068=DIRECTION('ref_axis',(1.,4.44089209850063E-16,-1.22464679914735E-16));
#1069=DIRECTION('',(-1.22464679914735E-16,-2.71926214689378E-32,-1.));
#1070=DIRECTION('center_axis',(-1.,-1.22464679914735E-16,1.69500334317099E-16));
#1071=DIRECTION('ref_axis',(-1.22464679914735E-16,1.,-2.8546002388729E-32));
#1072=DIRECTION('',(1.22464679914735E-16,-1.,3.89409910057241E-33));
#1073=DIRECTION('',(-1.69503729002298E-16,-4.93042223053495E-32,-1.));
#1074=DIRECTION('',(1.20786760985831E-16,-1.,4.38399272452987E-33));
#1075=DIRECTION('',(1.69500334317099E-16,2.46519032881566E-32,1.));
#1076=DIRECTION('',(1.22464679914735E-16,-1.,3.89409910057241E-33));
#1077=DIRECTION('center_axis',(-1.69500334317099E-16,-2.46519032881566E-32,
-1.));
#1078=DIRECTION('ref_axis',(-3.44509284839767E-16,1.,3.62832538483099E-32));
#1079=DIRECTION('',(-1.18306532525634E-17,1.,-2.26466036066574E-32));
#1080=DIRECTION('',(1.,3.44509284839767E-16,-1.69500334317099E-16));
#1081=DIRECTION('center_axis',(2.34521817128238E-16,3.26147383682041E-32,
1.));
#1082=DIRECTION('ref_axis',(3.44509284839767E-16,-1.,-5.46837473811408E-33));
#1083=DIRECTION('center_axis',(-3.44509284839767E-16,1.,4.67272671474731E-32));
#1084=DIRECTION('ref_axis',(-3.39000668634199E-16,-7.00616107638974E-32,
-1.));
#1085=DIRECTION('',(1.69500334317099E-16,2.46519032881566E-32,1.));
#1086=DIRECTION('',(1.,1.20786760985831E-16,-1.69500334317099E-16));
#1087=DIRECTION('',(1.,1.22464679914735E-16,-1.69500334317099E-16));
#1088=DIRECTION('center_axis',(3.44509284839767E-16,-1.,-3.62832538483099E-32));
#1089=DIRECTION('ref_axis',(-1.69500334317099E-16,-2.46519032881566E-32,
-1.));
#1090=DIRECTION('',(-1.69503729002298E-16,-4.93042223053495E-32,-1.));
#1091=DIRECTION('',(1.,3.44509284839767E-16,-1.69500334317099E-16));
#1092=DIRECTION('center_axis',(1.,1.18306532525634E-17,-1.69500334317099E-16));
#1093=DIRECTION('ref_axis',(1.18306532525633E-17,-1.,4.54398280025774E-32));
#1094=DIRECTION('',(-1.18306532525633E-17,1.,-6.08472675576753E-32));
#1095=DIRECTION('',(1.20786760985831E-16,-1.,4.38399272452987E-33));
#1096=DIRECTION('center_axis',(-1.69500334317099E-16,-2.46519032881566E-32,
-1.));
#1097=DIRECTION('ref_axis',(-1.,-1.22464679914735E-16,1.69500334317099E-16));
#1098=DIRECTION('center_axis',(-1.69500334317099E-16,-2.46519032881566E-32,
-1.));
#1099=DIRECTION('ref_axis',(3.44509284839767E-16,-1.,-5.46837473811409E-33));
#1100=DIRECTION('center_axis',(-1.69500334317099E-16,-2.46519032881566E-32,
-1.));
#1101=DIRECTION('ref_axis',(3.44509284839767E-16,-1.,-5.46837473811409E-33));
#1102=DIRECTION('',(-1.69500334317099E-16,-2.46519032881566E-32,-1.));
#1103=DIRECTION('center_axis',(-1.69500334317099E-16,-2.46519032881566E-32,
-1.));
#1104=DIRECTION('ref_axis',(3.44509284839767E-16,-1.,-5.46837473811409E-33));
#1105=DIRECTION('center_axis',(-1.69500334317099E-16,-2.46519032881566E-32,
-1.));
#1106=DIRECTION('ref_axis',(-1.,-1.22464679914735E-16,1.69500334317099E-16));
#1107=DIRECTION('center_axis',(1.69500334317099E-16,2.46519032881566E-32,
1.));
#1108=DIRECTION('ref_axis',(3.44509284839767E-16,-1.,-5.46837473811409E-33));
#1109=DIRECTION('',(1.03030248755767E-16,-0.857167300702112,-0.515038074910054));
#1110=CARTESIAN_POINT('',(0.,0.,0.));
#1111=CARTESIAN_POINT('Origin',(20.0802037837491,-33.7802066396284,19.98));
#1112=CARTESIAN_POINT('',(-13.3699900996206,-33.7802066396284,19.98));
#1113=CARTESIAN_POINT('',(-13.3699900996206,-33.7802066396284,14.9800004768372));
#1114=CARTESIAN_POINT('',(-13.3699900996206,-33.7802066396284,19.98));
#1115=CARTESIAN_POINT('',(13.3800156121371,-33.7802066396284,19.98));
#1116=CARTESIAN_POINT('',(10.0426082700037,-33.7802066396284,19.98));
#1117=CARTESIAN_POINT('',(13.3800156121371,-33.7802066396284,14.9800004768371));
#1118=CARTESIAN_POINT('',(13.3800156121371,-33.7802066396284,19.98));
#1119=CARTESIAN_POINT('',(30.0052037837491,-33.7802066396284,14.9800004768371));
#1120=CARTESIAN_POINT('',(10.0426056688613,-33.7802066396284,14.9800004768371));
#1121=CARTESIAN_POINT('',(30.0052037837491,-33.7802066396284,51.5));
#1122=CARTESIAN_POINT('',(30.0052037837491,-33.7802066396284,40.5));
#1123=CARTESIAN_POINT('',(-29.9951910274921,-33.7802066396284,51.5));
#1124=CARTESIAN_POINT('',(-29.9951910274921,-33.7802066396284,51.5));
#1125=CARTESIAN_POINT('',(-29.9951782712326,-33.7802066396284,43.5));
#1126=CARTESIAN_POINT('',(-29.9951910274921,-33.7802066396284,33.24));
#1127=CARTESIAN_POINT('',(-29.9951782712326,-33.7802066396284,17.98));
#1128=CARTESIAN_POINT('',(-29.9951910274921,-33.7802066396284,33.24));
#1129=CARTESIAN_POINT('',(-29.9951910274921,-33.7802066396284,14.9800004768372));
#1130=CARTESIAN_POINT('',(-29.9951910274921,-33.7802066396284,33.24));
#1131=CARTESIAN_POINT('',(10.0426056688613,-33.7802066396284,14.9800004768371));
#1132=CARTESIAN_POINT('Origin',(30.0052037837491,-7.03020092787071,19.98));
#1133=CARTESIAN_POINT('',(30.0052037837491,-7.03020092787072,14.9800004768371));
#1134=CARTESIAN_POINT('',(30.0052037837491,-13.7177978397532,14.9800004768371));
#1135=CARTESIAN_POINT('',(30.0052037837491,-7.03020092787071,51.5));
#1136=CARTESIAN_POINT('',(30.0052037837491,-7.03020092787072,18.48));
#1137=CARTESIAN_POINT('',(30.0052037837491,-17.7052037837496,51.5));
#1138=CARTESIAN_POINT('',(30.0052037837491,-20.4052037837496,51.5));
#1139=CARTESIAN_POINT('',(30.0052037837491,-17.7052037837496,19.98));
#1140=CARTESIAN_POINT('',(30.0052037837491,-17.7052037837496,19.98));
#1141=CARTESIAN_POINT('',(30.0052037837491,-23.1052037837496,19.98));
#1142=CARTESIAN_POINT('',(30.0052037837491,-14.9677023558101,19.98));
#1143=CARTESIAN_POINT('',(30.0052037837491,-23.1052037837496,51.5));
#1144=CARTESIAN_POINT('',(30.0052037837491,-23.1052037837496,35.74));
#1145=CARTESIAN_POINT('',(30.0052037837491,-20.4052037837496,51.5));
#1146=CARTESIAN_POINT('Origin',(13.3800156121371,43.0451811271109,19.98));
#1147=CARTESIAN_POINT('',(13.3800156121371,52.9697991913386,14.9800004768371));
#1148=CARTESIAN_POINT('',(13.3800156121371,-7.03020092787072,14.9800004768371));
#1149=CARTESIAN_POINT('',(13.3800156121371,11.3198931877376,14.9800004768372));
#1150=CARTESIAN_POINT('',(13.3800156121371,52.9697991913386,19.98));
#1151=CARTESIAN_POINT('',(13.3800156121371,52.9697991913386,18.48));
#1152=CARTESIAN_POINT('',(13.3800156121371,-7.03020092787074,19.98));
#1153=CARTESIAN_POINT('',(13.3800156121371,40.9701811271109,19.98));
#1154=CARTESIAN_POINT('',(13.3800156121371,-7.03020092787072,19.98));
#1155=CARTESIAN_POINT('Origin',(-20.0601782712326,-7.03020092787072,19.98));
#1156=CARTESIAN_POINT('',(-10.0275853586295,-7.03020092787072,14.9800004768372));
#1157=CARTESIAN_POINT('',(-13.3699900996206,-7.03020092787073,19.98));
#1158=CARTESIAN_POINT('',(-10.025082757487,-7.03020092787072,19.98));
#1159=CARTESIAN_POINT('',(-13.3699900996206,-7.03020092787072,14.9800004768372));
#1160=CARTESIAN_POINT('',(-13.3699900996206,-7.03020092787072,19.98));
#1161=CARTESIAN_POINT('',(-29.9951910274921,-7.03020092787072,14.9800004768372));
#1162=CARTESIAN_POINT('',(-10.0275853586295,-7.03020092787072,14.9800004768372));
#1163=CARTESIAN_POINT('',(-29.9951782712326,-7.03020092787072,17.98));
#1164=CARTESIAN_POINT('',(-29.9951910274921,-7.03020092787072,33.24));
#1165=CARTESIAN_POINT('',(-29.9951910274921,-7.03020092787072,51.5));
#1166=CARTESIAN_POINT('',(-29.9951910274921,-7.03020092787072,33.24));
#1167=CARTESIAN_POINT('',(-29.9951910274921,-7.03020092787072,51.5));
#1168=CARTESIAN_POINT('Origin',(0.00501302116778366,52.9697991913386,9.00341837353176));
#1169=CARTESIAN_POINT('',(-13.3699900996206,52.9697991913386,14.9800004768372));
#1170=CARTESIAN_POINT('',(0.00501028757067869,52.9697991913386,14.9800004768372));
#1171=CARTESIAN_POINT('',(-13.3699900996206,52.9697991913386,19.98));
#1172=CARTESIAN_POINT('',(-13.3699900996206,52.9697991913386,14.4917091867659));
#1173=CARTESIAN_POINT('',(-6.67998867168106,52.9697991913386,19.98));
#1174=CARTESIAN_POINT('Origin',(0.00501275625825369,22.9749900996201,14.7782787619449));
#1175=CARTESIAN_POINT('',(0.00501275625825421,18.9749900996201,15.98));
#1176=CARTESIAN_POINT('Origin',(0.00501275625825366,22.9749900996201,15.98));
#1177=CARTESIAN_POINT('',(0.00501275625825451,20.6392687883803,14.9800004768372));
#1178=CARTESIAN_POINT('',(0.00501275625825389,20.9749900996201,14.7782787619449));
#1179=CARTESIAN_POINT('Origin',(0.00501275625825371,22.9749900996201,14.9800004768372));
#1180=CARTESIAN_POINT('Origin',(0.0100127562582493,-20.4052037837496,14.7782787619449));
#1181=CARTESIAN_POINT('',(-3.98998724374175,-20.4052037837496,15.98));
#1182=CARTESIAN_POINT('Origin',(0.0100127562582495,-20.4052037837496,15.98));
#1183=CARTESIAN_POINT('',(-2.32570855498153,-20.4052037837496,14.9800004768372));
#1184=CARTESIAN_POINT('',(-1.98998724374175,-20.4052037837496,14.7782787619449));
#1185=CARTESIAN_POINT('Origin',(0.0100127562582494,-20.4052037837496,14.9800004768372));
#1186=CARTESIAN_POINT('Origin',(-21.3705858387329,-17.7052037837496,19.98));
#1187=CARTESIAN_POINT('',(21.380203783749,-17.7052037837496,51.5));
#1188=CARTESIAN_POINT('',(-10.6802865412373,-17.7052037837496,51.5));
#1189=CARTESIAN_POINT('',(21.380203783749,-17.7052037837496,19.98));
#1190=CARTESIAN_POINT('',(21.380203783749,-17.7052037837496,33.24));
#1191=CARTESIAN_POINT('',(-21.3705858387329,-17.7052037837496,19.98));
#1192=CARTESIAN_POINT('Origin',(-21.3705858387329,-17.7052037837496,19.98));
#1193=CARTESIAN_POINT('',(-29.9951910274921,-17.7052037837496,19.98));
#1194=CARTESIAN_POINT('',(-29.9951910274921,-17.7052037837496,51.5));
#1195=CARTESIAN_POINT('',(-29.9951910274921,-17.7052037837496,33.24));
#1196=CARTESIAN_POINT('',(-21.3705858387329,-17.7052037837496,19.98));
#1197=CARTESIAN_POINT('',(-29.9951910274921,-17.7052037837496,19.98));
#1198=CARTESIAN_POINT('',(-21.3705858387329,-17.7052037837496,51.5));
#1199=CARTESIAN_POINT('',(-21.3705858387329,-17.7052037837496,33.24));
#1200=CARTESIAN_POINT('',(-10.6802865412373,-17.7052037837496,51.5));
#1201=CARTESIAN_POINT('Origin',(21.380203783749,-30.7802066396284,46.5));
#1202=CARTESIAN_POINT('',(21.380203783749,-10.0302009278707,51.5));
#1203=CARTESIAN_POINT('',(21.380203783749,-19.6552037837496,51.5));
#1204=CARTESIAN_POINT('',(21.380203783749,-10.0302009278707,19.98));
#1205=CARTESIAN_POINT('',(21.380203783749,-10.0302009278707,31.74));
#1206=CARTESIAN_POINT('',(21.380203783749,-25.592705211689,19.98));
#1207=CARTESIAN_POINT('Origin',(-29.9951910274921,-33.7802066396284,46.5));
#1208=CARTESIAN_POINT('',(-29.9951782712326,-30.9052044990053,14.9800004768372));
#1209=CARTESIAN_POINT('',(-29.9951910274921,-27.0928006956321,14.9800004768372));
#1210=CARTESIAN_POINT('',(-29.9951910274921,-23.1052037837496,51.5));
#1211=CARTESIAN_POINT('',(-29.9951910274921,-21.1552037837496,51.5));
#1212=CARTESIAN_POINT('',(-29.9951910274921,-23.1052037837496,19.98));
#1213=CARTESIAN_POINT('',(-29.9951910274921,-23.1052037837496,49.));
#1214=CARTESIAN_POINT('',(-29.9951910274921,-25.842705211689,19.98));
#1215=CARTESIAN_POINT('',(-29.9951910274921,-21.1552037837496,51.5));
#1216=CARTESIAN_POINT('',(-29.9951782712326,-9.90520306849383,14.9800004768372));
#1217=CARTESIAN_POINT('',(-29.9951910274921,-27.0928006956321,14.9800004768372));
#1218=CARTESIAN_POINT('',(-29.9951782712326,-16.0302037837496,14.9800004768372));
#1219=CARTESIAN_POINT('',(-29.9951910274921,-23.3739550328751,14.9800004768372));
#1220=CARTESIAN_POINT('',(-29.9951782712326,-24.7802049758425,14.9800004768372));
#1221=CARTESIAN_POINT('',(-29.9951910274921,-27.0928006956321,14.9800004768372));
#1222=CARTESIAN_POINT('',(-29.9951910274921,-30.8114556885262,14.9800004768372));
#1223=CARTESIAN_POINT('Origin',(-21.3705858387329,-23.1052037837496,51.5));
#1224=CARTESIAN_POINT('',(-21.3705858387329,-23.1052037837496,51.5));
#1225=CARTESIAN_POINT('',(-10.6802865412373,-23.1052037837496,51.5));
#1226=CARTESIAN_POINT('',(-21.3705858387329,-23.1052037837496,19.98));
#1227=CARTESIAN_POINT('',(-21.3705858387329,-23.1052037837496,49.));
#1228=CARTESIAN_POINT('',(-21.3705858387329,-23.1052037837496,19.98));
#1229=CARTESIAN_POINT('Origin',(-21.3705858387329,-23.1052037837496,51.5));
#1230=CARTESIAN_POINT('',(21.380203783749,-23.1052037837496,19.98));
#1231=CARTESIAN_POINT('',(-21.3705858387329,-23.1052037837496,19.98));
#1232=CARTESIAN_POINT('',(21.380203783749,-23.1052037837496,51.5));
#1233=CARTESIAN_POINT('',(21.380203783749,-23.1052037837496,49.));
#1234=CARTESIAN_POINT('',(-10.6802865412373,-23.1052037837496,51.5));
#1235=CARTESIAN_POINT('Origin',(-21.3705858387329,-10.0302009278707,46.5));
#1236=CARTESIAN_POINT('',(-21.3705858387329,-30.7802066396284,51.5));
#1237=CARTESIAN_POINT('',(-21.3705858387329,-9.28020092787072,51.5));
#1238=CARTESIAN_POINT('',(-21.3705858387329,-30.7802066396284,19.98));
#1239=CARTESIAN_POINT('',(-21.3705858387329,-30.7802066396284,31.74));
#1240=CARTESIAN_POINT('',(-21.3705858387329,-15.2177023558101,19.98));
#1241=CARTESIAN_POINT('Origin',(21.380203783749,-30.7802066396284,46.5));
#1242=CARTESIAN_POINT('',(21.380203783749,-30.7802066396284,19.98));
#1243=CARTESIAN_POINT('',(21.380203783749,-25.592705211689,19.98));
#1244=CARTESIAN_POINT('',(21.380203783749,-30.7802066396284,51.5));
#1245=CARTESIAN_POINT('',(21.380203783749,-30.7802066396284,31.74));
#1246=CARTESIAN_POINT('',(21.380203783749,-19.6552037837496,51.5));
#1247=CARTESIAN_POINT('Origin',(0.0100127562582879,-8.53020092787072,51.5));
#1248=CARTESIAN_POINT('',(10.1951082700036,-30.7802066396284,51.5));
#1249=CARTESIAN_POINT('',(24.7548089725079,-24.1407037837497,51.5));
#1250=CARTESIAN_POINT('Origin',(24.7548089725079,-25.4052037837497,51.5));
#1251=CARTESIAN_POINT('',(-24.7451910274921,-24.1407037837495,51.5));
#1252=CARTESIAN_POINT('Origin',(-24.7451910274921,-25.4052037837495,51.5));
#1253=CARTESIAN_POINT('Origin',(0.0100127562584853,-20.4052037837496,19.98));
#1254=CARTESIAN_POINT('',(-13.3699900996206,12.9373913968098,19.98));
#1255=CARTESIAN_POINT('',(0.00501275625825424,18.9749900996201,19.98));
#1256=CARTESIAN_POINT('Origin',(0.00501275625825803,22.9749900996201,19.98));
#1257=CARTESIAN_POINT('Origin',(0.0100127562582879,-8.53020092787072,51.5));
#1258=CARTESIAN_POINT('',(-21.3705858387329,-10.0302009278707,51.5));
#1259=CARTESIAN_POINT('',(-21.3705858387329,-9.28020092787072,51.5));
#1260=CARTESIAN_POINT('',(10.1951082700036,-10.0302009278707,51.5));
#1261=CARTESIAN_POINT('',(24.754808972508,-14.1407037837497,51.5));
#1262=CARTESIAN_POINT('Origin',(24.754808972508,-15.4052037837497,51.5));
#1263=CARTESIAN_POINT('',(-24.745191027492,-14.1407037837495,51.5));
#1264=CARTESIAN_POINT('Origin',(-24.745191027492,-15.4052037837495,51.5));
#1265=CARTESIAN_POINT('Origin',(20.0802037837491,-30.7802066396284,19.98));
#1266=CARTESIAN_POINT('',(20.0802037837491,-30.7802066396284,19.98));
#1267=CARTESIAN_POINT('Origin',(0.0100127562584853,-20.4052037837496,19.98));
#1268=CARTESIAN_POINT('',(24.754808972508,-14.1407037837497,19.98));
#1269=CARTESIAN_POINT('Origin',(24.754808972508,-15.4052037837497,19.98));
#1270=CARTESIAN_POINT('Origin',(0.0100127562584853,-20.4052037837496,19.98));
#1271=CARTESIAN_POINT('',(-21.3705858387329,-10.0302009278707,19.98));
#1272=CARTESIAN_POINT('',(-10.025082757487,-10.0302009278707,19.98));
#1273=CARTESIAN_POINT('',(-21.3705858387329,-15.2177023558101,19.98));
#1274=CARTESIAN_POINT('',(-3.98998724374175,-20.4052037837496,19.98));
#1275=CARTESIAN_POINT('Origin',(0.01001275625825,-20.4052037837496,19.98));
#1276=CARTESIAN_POINT('Origin',(0.0100127562584853,-20.4052037837496,19.98));
#1277=CARTESIAN_POINT('',(24.7548089725079,-24.1407037837497,19.98));
#1278=CARTESIAN_POINT('Origin',(24.7548089725079,-25.4052037837497,19.98));
#1279=CARTESIAN_POINT('Origin',(-20.0601782712326,-10.0302009278707,19.98));
#1280=CARTESIAN_POINT('',(-21.3705858387329,-10.0302009278707,31.74));
#1281=CARTESIAN_POINT('Origin',(0.0100127562584853,-20.4052037837496,19.98));
#1282=CARTESIAN_POINT('',(-24.7451910274921,-24.1407037837495,19.98));
#1283=CARTESIAN_POINT('Origin',(-24.7451910274921,-25.4052037837495,19.98));
#1284=CARTESIAN_POINT('Origin',(0.0100127562584853,-20.4052037837496,19.98));
#1285=CARTESIAN_POINT('',(-24.745191027492,-14.1407037837495,19.98));
#1286=CARTESIAN_POINT('Origin',(-24.745191027492,-15.4052037837495,19.98));
#1287=CARTESIAN_POINT('Origin',(-21.3705858387329,-10.0302009278707,46.5));
#1288=CARTESIAN_POINT('Origin',(24.754808972508,-15.4052037837497,46.5));
#1289=CARTESIAN_POINT('',(24.754808972508,-14.1407037837497,46.5));
#1290=CARTESIAN_POINT('Origin',(24.7548089725079,-25.4052037837497,46.5));
#1291=CARTESIAN_POINT('',(24.7548089725079,-24.1407037837497,46.5));
#1292=CARTESIAN_POINT('Origin',(-24.7451910274921,-25.4052037837495,46.5));
#1293=CARTESIAN_POINT('',(-24.7451910274921,-24.1407037837495,46.5));
#1294=CARTESIAN_POINT('Origin',(-24.745191027492,-15.4052037837495,46.5));
#1295=CARTESIAN_POINT('',(-24.745191027492,-14.1407037837495,46.5));
#1296=CARTESIAN_POINT('Origin',(0.00501275625825363,22.9749900996201,17.98));
#1297=CARTESIAN_POINT('',(0.00501275625825403,18.9749900996201,17.98));
#1298=CARTESIAN_POINT('Origin',(-13.3699900996206,2.90479907212926,19.98));
#1299=CARTESIAN_POINT('',(-13.3699900996206,-8.75029783975324,14.9800004768372));
#1300=CARTESIAN_POINT('Origin',(0.0100127562582497,-20.4052037837496,17.98));
#1301=CARTESIAN_POINT('',(-3.98998724374175,-20.4052037837496,17.98));
#1302=CARTESIAN_POINT('Origin',(-13.3699900996206,-83.8455886946101,19.98));
#1303=CARTESIAN_POINT('',(-13.3699900996206,-93.7702067588377,14.9800004768372));
#1304=CARTESIAN_POINT('',(-13.3699900996206,-64.5253976969216,14.9800004768372));
#1305=CARTESIAN_POINT('',(-13.3699900996206,-93.7702067588377,16.98));
#1306=CARTESIAN_POINT('',(-13.3699900996206,-93.7702067588377,14.9800004768372));
#1307=CARTESIAN_POINT('',(-13.3699900996206,-93.7705886946101,16.98));
#1308=CARTESIAN_POINT('',(-13.3699900996206,-83.8455886946101,16.98));
#1309=CARTESIAN_POINT('',(-13.3699900996206,-93.7705886946101,19.98));
#1310=CARTESIAN_POINT('',(-13.3699900996206,-93.7705886946101,40.5));
#1311=CARTESIAN_POINT('',(-13.3699900996206,-73.8079899917998,19.98));
#1312=CARTESIAN_POINT('Origin',(-7.43248819741607,-45.2052066992331,14.9800004768372));
#1313=CARTESIAN_POINT('',(13.3800156121371,-93.7702067588377,14.9800004768371));
#1314=CARTESIAN_POINT('',(13.3800156121371,-44.4552066694308,14.9800004768371));
#1315=CARTESIAN_POINT('',(-3.71373785303367,-93.7702067588377,14.9800004768372));
#1316=CARTESIAN_POINT('',(0.00501275625824563,-61.4396763558795,14.9800004768372));
#1317=CARTESIAN_POINT('Origin',(0.00501275625824672,-63.7753976671193,14.9800004768372));
#1318=CARTESIAN_POINT('Origin',(0.00502413438800068,-93.7705886946101,33.2399888602888));
#1319=CARTESIAN_POINT('',(13.3800156121371,-93.7705886946101,16.98));
#1320=CARTESIAN_POINT('',(13.3800156121371,-93.7705886946101,19.98));
#1321=CARTESIAN_POINT('',(13.3800156121371,-93.7705886946101,25.86));
#1322=CARTESIAN_POINT('',(6.69251418419768,-93.7705886946101,19.98));
#1323=CARTESIAN_POINT('',(0.00501275625822436,-93.7705886946101,16.98));
#1324=CARTESIAN_POINT('Origin',(0.00501249134871881,-93.7702067588377,9.00341837353176));
#1325=CARTESIAN_POINT('',(13.3800156121371,-93.7702067588377,16.98));
#1326=CARTESIAN_POINT('',(13.3800156121371,-93.7702067588377,14.9800004768371));
#1327=CARTESIAN_POINT('',(0.00501262380349273,-93.7702067588377,16.98));
#1328=CARTESIAN_POINT('Origin',(13.3800156121371,-43.7052066396284,19.98));
#1329=CARTESIAN_POINT('',(13.3800156121371,-53.737798964309,19.98));
#1330=CARTESIAN_POINT('',(13.3800156121371,-83.8455886946101,16.98));
#1331=CARTESIAN_POINT('Origin',(0.00501275625824733,-63.7753976671195,16.98));
#1332=CARTESIAN_POINT('Origin',(0.00501275625824762,-63.7753976671193,17.98));
#1333=CARTESIAN_POINT('',(0.00501275625824707,-59.7753976671192,19.98));
#1334=CARTESIAN_POINT('Origin',(0.00501275625824376,-63.7753976671193,19.98));
#1335=CARTESIAN_POINT('',(0.00501275625824639,-59.7753976671192,15.98));
#1336=CARTESIAN_POINT('',(0.00501275625824673,-59.7753976671192,17.98));
#1337=CARTESIAN_POINT('Origin',(0.00501275625824704,-63.7753976671193,15.98));
#1338=CARTESIAN_POINT('Origin',(0.00501275625824376,-63.7753976671195,19.98));
#1339=CARTESIAN_POINT('Origin',(0.00501275625824669,-63.7753976671193,14.7782787619449));
#1340=CARTESIAN_POINT('',(0.00501275625824624,-61.7753976671192,14.7782787619449));
#1341=UNCERTAINTY_MEASURE_WITH_UNIT(LENGTH_MEASURE(0.01),#1345,
'DISTANCE_ACCURACY_VALUE',
'Maximum model space distance between geometric entities at asserted c
onnectivities');
#1342=UNCERTAINTY_MEASURE_WITH_UNIT(LENGTH_MEASURE(0.01),#1345,
'DISTANCE_ACCURACY_VALUE',
'Maximum model space distance between geometric entities at asserted c
onnectivities');
#1343=(
GEOMETRIC_REPRESENTATION_CONTEXT(3)
GLOBAL_UNCERTAINTY_ASSIGNED_CONTEXT((#1341))
GLOBAL_UNIT_ASSIGNED_CONTEXT((#1345,#1347,#1348))
REPRESENTATION_CONTEXT('','3D')
);
#1344=(
GEOMETRIC_REPRESENTATION_CONTEXT(3)
GLOBAL_UNCERTAINTY_ASSIGNED_CONTEXT((#1342))
GLOBAL_UNIT_ASSIGNED_CONTEXT((#1345,#1347,#1348))
REPRESENTATION_CONTEXT('','3D')
);
#1345=(
LENGTH_UNIT()
NAMED_UNIT(*)
SI_UNIT(.MILLI.,.METRE.)
);
#1346=(
LENGTH_UNIT()
NAMED_UNIT(*)
SI_UNIT($,.METRE.)
);
#1347=(
NAMED_UNIT(*)
PLANE_ANGLE_UNIT()
SI_UNIT($,.RADIAN.)
);
#1348=(
NAMED_UNIT(*)
SI_UNIT($,.STERADIAN.)
SOLID_ANGLE_UNIT()
);
#1349=SHAPE_DEFINITION_REPRESENTATION(#1350,#1351);
#1350=PRODUCT_DEFINITION_SHAPE('',$,#1353);
#1351=SHAPE_REPRESENTATION('',(#835),#1343);
#1352=PRODUCT_DEFINITION_CONTEXT('part definition',#1357,'design');
#1353=PRODUCT_DEFINITION('sorting_servo_mount','Servo 2020 Mount',#1354,
#1352);
#1354=PRODUCT_DEFINITION_FORMATION('',$,#1359);
#1355=PRODUCT_RELATED_PRODUCT_CATEGORY('Servo 2020 Mount',
'Servo 2020 Mount',(#1359));
#1356=APPLICATION_PROTOCOL_DEFINITION('international standard',
'automotive_design',2009,#1357);
#1357=APPLICATION_CONTEXT(
'Core Data for Automotive Mechanical Design Process');
#1358=PRODUCT_CONTEXT('part definition',#1357,'mechanical');
#1359=PRODUCT('sorting_servo_mount','Servo 2020 Mount',$,(#1358));
#1360=PRESENTATION_STYLE_ASSIGNMENT((#1362));
#1361=PRESENTATION_STYLE_ASSIGNMENT((#1363));
#1362=SURFACE_STYLE_USAGE(.BOTH.,#1364);
#1363=SURFACE_STYLE_USAGE(.BOTH.,#1365);
#1364=SURFACE_SIDE_STYLE('',(#1366));
#1365=SURFACE_SIDE_STYLE('',(#1367));
#1366=SURFACE_STYLE_FILL_AREA(#1368);
#1367=SURFACE_STYLE_FILL_AREA(#1369);
#1368=FILL_AREA_STYLE('Steel - Satin',(#1370));
#1369=FILL_AREA_STYLE('Opaque(191,191,191)',(#1371));
#1370=FILL_AREA_STYLE_COLOUR('Steel - Satin',#1372);
#1371=FILL_AREA_STYLE_COLOUR('Opaque(191,191,191)',#1373);
#1372=COLOUR_RGB('Steel - Satin',0.627450980392157,0.627450980392157,0.627450980392157);
#1373=COLOUR_RGB('Opaque(191,191,191)',0.749019607843137,0.749019607843137,
0.749019607843137);
ENDSEC;
END-ISO-10303-21;
